<?xml version="1.0" standalone="no"?>
<!DOCTYPE svg PUBLIC "-//W3C//DTD SVG 20010904//EN"
 "http://www.w3.org/TR/2001/REC-SVG-20010904/DTD/svg10.dtd">
<svg version="1.0" xmlns="http://www.w3.org/2000/svg"
 width="800.000000pt" height="450.000000pt" viewBox="0 0 800.000000 450.000000"
 preserveAspectRatio="xMidYMid meet">

<g transform="translate(0.000000,450.000000) scale(0.100000,-0.100000)"
fill="#000000" stroke="none">
<path d="M2443 2557 c-4 -6 -7 -241 -4 -294 2 -33 34 -5 85 75 54 83 56 90 56
155 0 37 -3 67 -7 68 -60 4 -126 2 -130 -4z"/>
<path d="M2834 2559 c-22 -8 -394 -586 -394 -612 0 -14 11 -17 68 -17 l67 0
60 95 c33 52 62 95 65 95 3 -1 32 -43 64 -95 l59 -95 64 0 c47 0 65 4 69 15 4
9 -28 69 -78 148 -47 72 -88 138 -92 145 -5 8 28 68 83 154 85 132 102 167 84
169 -58 5 -103 4 -119 -2z"/>
<path d="M3399 2554 c-6 -7 24 -63 85 -158 l95 -148 -81 -126 c-45 -70 -88
-137 -96 -150 -22 -34 -5 -43 69 -40 l64 3 192 300 c106 165 193 306 193 313
0 14 3 13 -72 16 -32 1 -61 0 -66 -3 -4 -3 -34 -48 -66 -99 l-59 -92 -58 92
-58 93 -67 5 c-41 3 -69 1 -75 -6z"/>
<path d="M4470 2560 c-17 -10 -390 -604 -387 -614 2 -6 33 -11 72 -11 l68 0
116 181 116 181 5 -181 5 -181 70 0 70 0 3 313 c1 171 -1 312 -5 313 -34 4
-127 3 -133 -1z"/>
<path d="M5050 2556 c-12 -12 -13 -595 -1 -614 5 -9 27 -12 72 -10 l64 3 5
184 5 184 119 -186 119 -187 64 0 c46 0 65 4 69 15 3 8 -74 139 -186 315 -168
263 -195 300 -218 302 -69 5 -103 3 -112 -6z"/>
<path d="M5440 2562 c-5 -2 -10 -34 -10 -72 0 -67 2 -72 55 -155 79 -123 85
-118 85 70 l0 155 -27 1 c-73 4 -93 4 -103 1z"/>
</g>
</svg>
